#define bitmap_iconpanel.xbm_width 48
#define bitmap_iconpanel.xbm_height 48
static char bitmap_iconpanel.xbm_bits[] = {
   0x00, 0x00, 0x00, 0x00, 0x00, 0x00, 0x00, 0x00, 0x00, 0x00, 0x00, 0x00,
   0x00, 0x00, 0x00, 0x00, 0x00, 0x00, 0x00, 0x00, 0x00, 0x00, 0x00, 0x00,
   0x00, 0x00, 0x00, 0x1c, 0x00, 0x00, 0x00, 0x00, 0x00, 0x32, 0x00, 0x00,
   0x00, 0x00, 0x00, 0xe3, 0x00, 0x00, 0x00, 0x00, 0x00, 0xa1, 0x01, 0x00,
   0x00, 0x00, 0x80, 0x22, 0x03, 0x00, 0x00, 0x00, 0x40, 0x1c, 0x06, 0x00,
   0x00, 0x00, 0x60, 0x0e, 0x0c, 0x00, 0x00, 0x00, 0x20, 0x1a, 0x18, 0x00,
   0x00, 0x00, 0x10, 0x31, 0x30, 0x00, 0x00, 0x00, 0x98, 0x20, 0x60, 0x00,
   0x00, 0x00, 0x48, 0x60, 0xc0, 0x00, 0x00, 0x00, 0x44, 0xc0, 0xc0, 0x03,
   0x00, 0x00, 0x2c, 0xc0, 0x31, 0x06, 0x00, 0x00, 0x12, 0x80, 0x11, 0x0c,
   0x00, 0x00, 0x12, 0x00, 0x0b, 0x08, 0x00, 0x00, 0x0c, 0x00, 0x4a, 0x18,
   0x00, 0x00, 0x1e, 0x00, 0xce, 0x18, 0x00, 0x30, 0x1e, 0x00, 0x1c, 0x08,
   0x00, 0xc0, 0x13, 0x00, 0x38, 0x0c, 0x00, 0x00, 0x1e, 0x00, 0xf0, 0x07,
   0x00, 0x00, 0xf0, 0x00, 0xe0, 0x01, 0x00, 0x00, 0x00, 0x07, 0x00, 0x00,
   0x00, 0x00, 0x00, 0x18, 0x00, 0x00, 0x00, 0x00, 0x00, 0x00, 0x00, 0x00,
   0x00, 0x00, 0x00, 0x00, 0x00, 0x00, 0x00, 0x00, 0x00, 0x00, 0x00, 0x00,
   0x00, 0x00, 0xe0, 0x03, 0x00, 0x00, 0x00, 0x00, 0xf8, 0x0f, 0x00, 0x00,
   0x00, 0x00, 0x1c, 0x1c, 0x00, 0x00, 0x00, 0x00, 0x0e, 0x38, 0x00, 0x00,
   0x10, 0x00, 0x06, 0x30, 0x00, 0x04, 0x18, 0x00, 0x03, 0x60, 0x00, 0x0c,
   0xfc, 0x07, 0x03, 0x60, 0xf0, 0x1f, 0xfe, 0x07, 0x03, 0x60, 0xf0, 0x3f,
   0xfc, 0x07, 0x03, 0x60, 0xf0, 0x1f, 0x18, 0x00, 0x03, 0x60, 0x00, 0x0c,
   0x10, 0x00, 0x06, 0x30, 0x00, 0x04, 0x00, 0x00, 0x0e, 0x38, 0x00, 0x00,
   0x00, 0x00, 0x1c, 0x1c, 0x00, 0x00, 0x00, 0x00, 0xf8, 0x0f, 0x00, 0x00,
   0x00, 0x00, 0xe0, 0x03, 0x00, 0x00, 0x00, 0x00, 0x00, 0x00, 0x00, 0x00,
   0x00, 0x00, 0x00, 0x00, 0x00, 0x00, 0x00, 0x00, 0x00, 0x00, 0x00, 0x00};
