#define icon_fsp_width 32
#define icon_fsp_height 32
static unsigned char icon_fsp_bits[] = {
   0x00, 0x00, 0x00, 0x00, 0x00, 0x00, 0x00, 0x00, 0x00, 0x00, 0x00, 0x00,
   0x00, 0x00, 0x00, 0x00, 0x00, 0x00, 0x00, 0x00, 0x00, 0x00, 0x00, 0x00,
   0x00, 0x00, 0x00, 0x00, 0x00, 0x00, 0x00, 0x00, 0x00, 0x00, 0x00, 0x00,
   0x00, 0x00, 0x00, 0x00, 0x00, 0x40, 0x00, 0x00, 0x00, 0xc0, 0x01, 0x00,
   0x00, 0xf8, 0x1f, 0x00, 0xc0, 0xc7, 0xe1, 0x03, 0x20, 0x44, 0x20, 0x04,
   0x10, 0x08, 0x10, 0x08, 0x10, 0x08, 0x10, 0x08, 0x10, 0x08, 0x10, 0x08,
   0x10, 0x08, 0x10, 0x08, 0x20, 0x04, 0x22, 0x06, 0xc0, 0x87, 0xe3, 0x01,
   0x00, 0xf8, 0x1f, 0x00, 0x00, 0x80, 0x03, 0x00, 0x00, 0x00, 0x02, 0x00,
   0x00, 0x00, 0x00, 0x00, 0x00, 0x00, 0x00, 0x00, 0x00, 0x00, 0x00, 0x00,
   0x00, 0x00, 0x00, 0x00, 0x00, 0x00, 0x00, 0x00, 0x00, 0x00, 0x00, 0x00,
   0x00, 0x00, 0x00, 0x00, 0x00, 0x00, 0x00, 0x00 };
