#define icon_width 32
#define icon_height 32
static char icon_bits[] = {
   0x00, 0x00, 0x00, 0x00, 0x00, 0x00, 0x00, 0x00, 0x00, 0xe0, 0xe0, 0x00,
   0x00, 0x30, 0x11, 0x01, 0x00, 0x18, 0x0a, 0x02, 0x00, 0x0c, 0x4a, 0x04,
   0x00, 0x46, 0xe4, 0x04, 0x3c, 0xe2, 0x44, 0x04, 0x42, 0x42, 0x00, 0x02,
   0xbd, 0x04, 0x00, 0x01, 0x41, 0x19, 0x8c, 0x0f, 0x82, 0x23, 0x1e, 0x10,
   0x84, 0x70, 0x33, 0x22, 0x78, 0x0c, 0x33, 0x27, 0x00, 0x02, 0x1e, 0x22,
   0x00, 0x12, 0x0c, 0x10, 0x00, 0x3a, 0x60, 0x08, 0x00, 0x12, 0xc0, 0x07,
   0x00, 0x02, 0x88, 0x00, 0x00, 0xc4, 0x9c, 0x00, 0x00, 0xb8, 0x88, 0x06,
   0x00, 0x40, 0x81, 0x0a, 0xe0, 0x7f, 0x42, 0x12, 0x10, 0x60, 0x3c, 0x2a,
   0x88, 0x5f, 0x00, 0x29, 0x64, 0x20, 0x00, 0x49, 0x02, 0x10, 0x00, 0x52,
   0xe2, 0x0f, 0x00, 0x42, 0x1e, 0x00, 0x00, 0xfc, 0x02, 0x00, 0x00, 0x00,
   0x00, 0x00, 0x00, 0x00, 0x00, 0x00, 0x00, 0x00};
