#define icon_aut_width 30
#define icon_aut_height 30
static char icon_aut_bits[] = {
   0x00, 0xf0, 0x01, 0x00, 0x00, 0x10, 0x01, 0x00, 0x00, 0x10, 0x01, 0x00,
   0x00, 0x10, 0x01, 0x00, 0x00, 0xf0, 0x01, 0x00, 0x00, 0x40, 0x00, 0x00,
   0x00, 0x40, 0x7e, 0x00, 0x00, 0x40, 0x7e, 0x00, 0x00, 0x40, 0x00, 0x00,
   0x00, 0xf0, 0x01, 0x00, 0x00, 0x10, 0x01, 0x00, 0xfc, 0x18, 0xe3, 0x07,
   0xfc, 0x14, 0xe5, 0x07, 0x00, 0xf2, 0x09, 0x00, 0x00, 0x41, 0x10, 0x00,
   0x80, 0x40, 0x20, 0x00, 0xf0, 0x41, 0xf0, 0x01, 0x10, 0x41, 0x10, 0x01,
   0x10, 0x41, 0x10, 0x01, 0x10, 0x41, 0x10, 0x01, 0xf0, 0x41, 0xf7, 0x01,
   0x40, 0x40, 0x47, 0x00, 0x80, 0x40, 0x20, 0x00, 0x00, 0x41, 0x10, 0x00,
   0x00, 0x42, 0x08, 0x00, 0xfc, 0xf4, 0xe5, 0x07, 0xfc, 0x18, 0xe3, 0x07,
   0x00, 0x10, 0x01, 0x00, 0x00, 0x10, 0x01, 0x00, 0x00, 0xf0, 0x01, 0x00};
