#define icon_width 32
#define icon_height 32
static char icon_bits[] = {
   0xf0, 0xff, 0x7f, 0x00, 0x10, 0x00, 0xc0, 0x00, 0x10, 0x00, 0x40, 0x01,
   0x10, 0x00, 0x40, 0x02, 0x10, 0x10, 0x40, 0x04, 0x10, 0x30, 0xc2, 0x0f,
   0x10, 0x50, 0x03, 0x08, 0x10, 0xb7, 0x02, 0x08, 0x10, 0x9a, 0x02, 0x08,
   0x10, 0x44, 0x7a, 0x08, 0x10, 0x68, 0x46, 0x08, 0x10, 0x50, 0x21, 0x08,
   0x10, 0x08, 0x16, 0x08, 0x10, 0xb4, 0x09, 0x08, 0x10, 0x2c, 0x04, 0x08,
   0x10, 0x90, 0x08, 0x08, 0x10, 0x50, 0x09, 0x08, 0x10, 0x28, 0x16, 0x08,
   0x10, 0x18, 0x38, 0x08, 0x10, 0x08, 0x00, 0x08, 0x10, 0x00, 0x00, 0x08,
   0x10, 0x00, 0x00, 0x08, 0x10, 0x00, 0x00, 0x08, 0x10, 0x53, 0x5d, 0x09,
   0x90, 0x54, 0x49, 0x09, 0x10, 0x71, 0x49, 0x09, 0x10, 0x52, 0x49, 0x09,
   0x90, 0x54, 0x09, 0x08, 0x10, 0x53, 0x49, 0x09, 0x10, 0x00, 0x00, 0x08,
   0x10, 0x00, 0x00, 0x08, 0xf0, 0xff, 0xff, 0x0f};
