#define icon_width 32
#define icon_height 32
static char icon_bits[] = {
   0xf0, 0xff, 0x7f, 0x00, 0x10, 0x00, 0xc0, 0x00, 0x90, 0x8f, 0x4f, 0x01,
   0x10, 0x07, 0x47, 0x02, 0x10, 0x8e, 0x43, 0x04, 0x10, 0x8e, 0xc3, 0x0f,
   0x10, 0xdc, 0x01, 0x08, 0x10, 0xdc, 0x01, 0x08, 0x10, 0xf8, 0x00, 0x08,
   0x10, 0xf8, 0x00, 0x08, 0x10, 0x70, 0x00, 0x08, 0x10, 0x70, 0x00, 0x08,
   0x10, 0x70, 0x00, 0x08, 0x10, 0x70, 0x00, 0x08, 0x10, 0xf8, 0x00, 0x08,
   0xd0, 0x00, 0x00, 0x08, 0x10, 0x00, 0x00, 0x08, 0x90, 0x05, 0x00, 0x08,
   0x10, 0x00, 0x00, 0x08, 0x90, 0xdf, 0x0a, 0x08, 0x10, 0x00, 0x00, 0x08,
   0x10, 0xb7, 0x03, 0x08, 0x10, 0x00, 0x00, 0x08, 0x90, 0xbd, 0xb7, 0x08,
   0x10, 0x00, 0x00, 0x08, 0x10, 0x6c, 0x00, 0x08, 0x10, 0x00, 0x00, 0x08,
   0x90, 0xdd, 0x00, 0x08, 0x10, 0x00, 0x00, 0x08, 0xd0, 0x00, 0x00, 0x08,
   0x10, 0x00, 0x00, 0x08, 0xf0, 0xff, 0xff, 0x0f};
