#define icon_width 32
#define icon_height 32
static char icon_bits[] = {
 0xfc, 0xff, 0xff, 0x00, 0x04, 0x00, 0x80, 0x01, 0x04, 0x00, 0x80, 0x02,
 0x04, 0x00, 0x80, 0x04, 0x04, 0x00, 0x80, 0x08, 0x04, 0x00, 0x80, 0x10,
 0x04, 0x00, 0x80, 0x20, 0x04, 0x00, 0x80, 0x7f, 0x04, 0x00, 0x00, 0x60,
 0x04, 0x00, 0x00, 0x60, 0x04, 0x00, 0x00, 0x60, 0xe4, 0x0f, 0x3c, 0x6f,
 0x24, 0x09, 0x10, 0x62, 0x24, 0x09, 0x30, 0x61, 0x04, 0x01, 0x20, 0x61,
 0x04, 0xf9, 0xc3, 0x60, 0x04, 0x11, 0xc2, 0x60, 0x04, 0x11, 0x20, 0x61,
 0x04, 0x11, 0x11, 0x63, 0x04, 0xf1, 0x19, 0x66, 0x84, 0x13, 0x3d, 0x6f,
 0x04, 0x10, 0x00, 0x60, 0x04, 0x10, 0x00, 0x60, 0x04, 0x10, 0x02, 0x60,
 0x04, 0xf8, 0x03, 0x60, 0x04, 0x00, 0x00, 0x60, 0x04, 0x00, 0x00, 0x60,
 0x04, 0x00, 0x00, 0x60, 0x04, 0x00, 0x00, 0x60, 0x04, 0x00, 0x00, 0x60,
 0xfc, 0xff, 0xff, 0x7f, 0xf8, 0xff, 0xff, 0x7f };
