#define icon_width 32
#define icon_height 32
static char icon_bits[] = {
   0x00, 0x00, 0x00, 0x00, 0x00, 0x00, 0x00, 0x00, 0x00, 0x00, 0x00, 0x00,
   0x08, 0x00, 0x00, 0x00, 0x14, 0x00, 0x00, 0x00, 0x1c, 0x04, 0x00, 0x00,
   0x08, 0x0a, 0x00, 0x00, 0x10, 0x0e, 0x00, 0x00, 0x10, 0x02, 0x00, 0x00,
   0x20, 0x01, 0x00, 0x00, 0xf0, 0x01, 0x1f, 0x00, 0xa8, 0xc2, 0x71, 0x00,
   0xa8, 0x64, 0xc0, 0x00, 0x08, 0x34, 0x80, 0x00, 0x48, 0x15, 0x06, 0x01,
   0xd0, 0x14, 0x0d, 0x01, 0x20, 0x92, 0x18, 0x01, 0xc0, 0x93, 0x12, 0x02,
   0x20, 0xbc, 0x13, 0x02, 0x20, 0x30, 0x18, 0x02, 0x10, 0xd0, 0x0c, 0x03,
   0x10, 0x10, 0x03, 0x01, 0x10, 0x10, 0x80, 0x00, 0x20, 0x10, 0xc0, 0x07,
   0x20, 0x10, 0x40, 0x08, 0x40, 0x10, 0x30, 0x10, 0x80, 0xef, 0xff, 0x1f,
   0x00, 0x00, 0x00, 0x00, 0x00, 0x00, 0x00, 0x00, 0x00, 0x00, 0x00, 0x00,
   0x00, 0x00, 0x00, 0x00, 0x00, 0x00, 0x00, 0x00};
